<svg xmlns="http://www.w3.org/2000/svg" width="48" height="48" fill="none" viewBox="0 0 48 48" id="langchain">
  <mask id="mask0_6055_45172" width="40" height="40" x="4" y="4" maskUnits="userSpaceOnUse" style="mask-type:luminance">
    <path fill="#fff" d="M44 4H4V44H44V4Z"></path>
  </mask>
  <g mask="url(#mask0_6055_45172)">
    <path fill="#7FC8FF" d="M16.5517 30.6266C18.9048 28.2734 20.2275 25.0784 20.2275 21.7508 20.2275 18.4232 18.9036 15.2279 16.5517 12.8748L7.67593 4C5.32393 6.3532 4 9.54831 4 12.8759 4 16.2036 5.32393 19.3986 7.67593 21.7518L16.5504 30.6266H16.5517ZM35.1226 31.4492C32.7706 29.097 29.5744 27.7731 26.248 27.7731 22.9216 27.7731 19.7255 29.097 17.3723 31.4492L26.248 40.3251C28.6001 42.6771 31.7962 44.0012 35.1236 44.0012 38.4512 44.0012 41.6463 42.6771 43.9994 40.3251L35.1236 31.4492H35.1226ZM7.69903 40.3028C10.0522 42.6549 13.2472 43.9788 16.5747 43.9788V31.4268H4.02197C4.0231 34.7544 5.34588 37.9496 7.69903 40.3028ZM38.5496 18.3252C36.1965 15.9731 33.0014 14.648 29.6728 14.6492 26.3452 14.6492 23.1503 15.9731 20.7971 18.3264L29.6728 27.2022 38.5496 18.3252Z"></path>
  </g>
</svg>
